<svg xmlns="http://www.w3.org/2000/svg" viewBox="0 0 250 35.642">
<g>
	<path fill="#FFFFFF" d="M7.378,7.123V0H0v28.493h29.574V7.123H7.378z M7.378,21.37v-7.124h14.788v7.124H7.378z M44.036,7.123v7.123h-7.408v14.247h29.574V7.123H44.036z M44.036,14.246h14.787v7.124H44.036V14.246z M80.639,0h-7.384v7.123 h7.384V0z M80.639,14.246h-7.384v14.247h7.384V14.246z M87.717,7.123v21.37h14.787l-3.277,7.148h7.384l3.272-7.148h7.408V7.123 H87.717z M95.096,21.37v-7.124h14.788v7.124H95.096z M124.375,7.123v21.37h29.544V7.123H124.375z M131.753,21.37v-7.124h14.788 v7.124H131.753z"/>
	<g>
		<path fill="#FFFFFF" d="M193.863,24.727c-1.481,0.73-3.767,1.211-6.013,1.211 c-6.938,0-10.96-4.583-10.96-11.716c0-7.648,4.443-12.021,11.131-12.021c2.371,0,4.362,0.524,5.758,1.215l0.89-2.181 c-0.975-0.271-3.216-0.676-6.773-0.676c-8.849,0-14.617,4.673-14.617,13.792c0,9.55,5.768,13.227,13.812,13.227 c3.472,0,6.183-0.36,7.534-0.721L193.863,24.727z"/>
		<path fill="#FFFFFF" d="M223.377,28.023h3.537L225.168,0.56h-4.617l-4.993,12.151 c-1.25,3.816-2.246,7.089-2.956,10.095h-0.125c-0.705-3.097-1.661-6.368-2.826-10.035L204.863,0.56h-4.617l-1.956,27.464h3.457 l0.745-12.717c0.25-4.441,0.46-9.414,0.541-13.105h0.085c0.791,3.517,1.916,7.343,3.247,11.521l4.532,14.122h2.747l4.952-14.322 c1.411-4.107,2.576-7.819,3.537-11.32h0.12c-0.04,3.722,0.21,8.714,0.42,12.866L223.377,28.023z"/>
		<path fill="#FFFFFF" d="M232.332,26.598c1.496,0.545,4.427,0.98,7.384,0.98 c7.164,0,10.285-2.416,10.285-6.898c0-4.268-2.351-6.634-7.378-8.529c-4.227-1.551-6.088-2.887-6.088-5.603 c0-1.98,1.591-4.347,5.768-4.347c2.776,0,4.737,0.86,5.633,1.375l0.97-2.261c-1.215-0.391-3.327-0.756-6.463-0.756 c-5.953,0-9.515,1.896-9.515,6.419c0,4.092,2.787,6.548,7.694,8.229c4.137,1.511,5.772,3.062,5.772,5.772 c0,2.932-2.361,4.958-6.408,4.958c-2.727,0-5.133-0.865-6.733-1.896L232.332,26.598z"/>
	</g>
</g>
</svg>
